<svg width="1200" height="337" viewBox="0 0 1200 337" fill="none" xmlns="http://www.w3.org/2000/svg">
<g clip-path="url(#clip0_1411_104)">
<path d="M333.323 90.0054C346.719 103.697 353.442 122.625 353.442 146.79V147.295H304.691C303.821 137.494 300.532 129.784 294.777 124.187C288.006 117.581 278.986 114.29 267.717 114.29C255.167 114.29 245.156 118.158 237.635 125.868C232.46 131.177 229.075 138.335 227.454 147.295H177.857V74.7043H226.366V95.6023C238.143 78.1873 256.811 69.4678 282.371 69.4678C302.926 69.4678 319.902 76.3136 333.323 90.0054Z" fill="white"/>
<path d="M122.819 200.14L173.311 261.441H116.919L67.4912 200.14H122.819Z" fill="white"/>
<path d="M111.6 147.295H56.2715L113.171 74.7041H171.063L111.6 147.295Z" fill="white"/>
<path d="M353.442 200.14H304.933V261.441H353.442V200.14Z" fill="white"/>
<path d="M48.5088 0H0V147.295H48.5088V0Z" fill="white"/>
<path d="M498.968 200.14H552.845C548.178 214.264 540.174 226.923 528.832 238.093C509.535 257.141 485.982 266.653 458.149 266.653C430.34 266.653 406.835 257.141 387.659 238.093C376.414 226.923 368.458 214.264 363.815 200.14H417.62C418.902 201.846 420.328 203.479 421.876 205.04C431.525 214.745 443.616 219.597 458.149 219.597C472.706 219.597 484.846 214.745 494.639 205.04C496.211 203.479 497.662 201.846 498.968 200.14Z" fill="white"/>
<path d="M48.5088 200.14H0V261.441H48.5088V200.14Z" fill="white"/>
<path d="M528.832 98.0524C543.1 112.128 552.095 128.535 555.819 147.295H505.473C503.055 141.266 499.427 135.861 494.639 131.105C484.846 121.376 472.706 116.524 458.149 116.524C443.616 116.524 431.525 121.376 421.876 131.105C417.161 135.861 413.582 141.266 411.164 147.295H360.865C364.565 128.535 373.488 112.128 387.659 98.0524C406.835 79.004 430.34 69.4678 458.149 69.4678C485.982 69.4678 509.535 79.004 528.832 98.0524Z" fill="white"/>
<path d="M226.366 200.14H177.857V261.441H226.366V200.14Z" fill="white"/>
<path d="M1035.44 147.295L1004.49 74.7041H1057.52L1085.86 147.295H1035.44Z" fill="white"/>
<path d="M1106.56 200.14H1154.03L1131.47 261.729C1121.7 288.392 1108.74 307.777 1092.58 319.859C1076.43 331.941 1056.34 337.37 1032.32 336.121V291.298C1045.36 291.563 1055.68 288.824 1063.35 283.083C1070.99 277.366 1077.06 268.143 1081.58 255.46L1057.98 200.14H1106.51L1106.54 200.212L1106.56 200.14Z" fill="white"/>
<path d="M694.116 200.14H778.898L760.907 261.441H713.365L694.116 200.14Z" fill="white"/>
<path d="M576.567 200.14H661.518L642.245 261.441H594.704L576.567 200.14Z" fill="white"/>
<path d="M941.134 200.14H999.436V261.441H950.951V239.39C936.394 257.573 915.984 266.653 889.65 266.653C864.598 266.653 843.1 257.141 825.182 238.093C814.663 226.923 807.239 214.264 802.91 200.14H856.473C857.972 202.182 859.616 204.128 861.454 205.977C871.224 215.802 883.653 220.726 898.67 220.726C913.711 220.726 926.189 215.802 936.104 205.977C937.942 204.128 939.634 202.182 941.134 200.14Z" fill="white"/>
<path d="M611.123 147.295H560.922L539.448 74.7041H590.738L611.123 147.295Z" fill="white"/>
<path d="M815.726 74.7041L794.422 147.295H749.057L769.176 74.7041H815.726Z" fill="white"/>
<path d="M724.657 147.295H635.475L657.166 74.7041H703.063L724.657 147.295Z" fill="white"/>
<path d="M950.951 74.7043H999.436V147.295H947.324C944.882 140.857 941.133 135.164 936.104 130.168C926.189 120.319 913.711 115.419 898.67 115.419C883.653 115.419 871.224 120.319 861.454 130.168C856.497 135.164 852.797 140.857 850.355 147.295H800.153C803.587 128.535 811.954 112.128 825.181 98.0524C843.1 79.004 864.598 69.4678 889.65 69.4678C915.984 69.4678 936.394 78.5715 950.951 96.7312V74.7043Z" fill="white"/>
<path d="M1200 74.7041L1173.4 147.295H1124.07L1148.13 74.7041H1200Z" fill="white"/>
<path d="M132.629 169.472C132.629 170.699 133.269 171.682 134.551 172.423C135.833 173.162 137.361 173.791 139.135 174.309C140.908 174.825 142.692 175.346 144.487 175.869C146.282 176.394 147.8 177.375 149.043 178.813C150.288 180.253 150.91 182.099 150.91 184.356C150.91 187.298 149.767 189.653 147.483 191.426C145.197 193.199 142.269 194.084 138.7 194.084C135.523 194.084 132.802 193.392 130.539 192.01C128.275 190.626 126.665 188.789 125.707 186.498L130.605 183.708C131.127 185.264 132.106 186.498 133.543 187.405C134.978 188.313 136.697 188.766 138.7 188.766C140.572 188.766 142.117 188.412 143.336 187.699C144.554 186.986 145.165 185.874 145.165 184.363C145.165 183.113 144.532 182.109 143.268 181.353C142.005 180.598 140.485 179.955 138.713 179.427C136.938 178.897 135.154 178.365 133.361 177.83C131.566 177.295 130.038 176.336 128.776 174.952C127.514 173.57 126.883 171.797 126.883 169.634C126.883 166.824 127.981 164.511 130.18 162.695C132.377 160.879 135.131 159.972 138.439 159.972C141.093 159.972 143.455 160.565 145.524 161.754C147.59 162.944 149.147 164.598 150.191 166.716L145.426 169.376C144.25 166.608 141.921 165.224 138.439 165.224C136.829 165.224 135.458 165.594 134.325 166.333C133.193 167.072 132.629 168.121 132.629 169.472Z" fill="white"/>
<path d="M290.893 160.814H296.965L283.645 195.252C282.251 198.928 280.304 201.726 277.801 203.652C275.299 205.574 272.416 206.43 269.151 206.214V200.959C273.14 201.262 276.065 199.052 277.93 194.33L278.553 193.113L264.319 160.814H270.392L281.277 185.674L290.893 160.814Z" fill="white"/>
<path d="M416.71 169.472C416.71 170.699 417.35 171.682 418.632 172.423C419.914 173.162 421.442 173.791 423.216 174.309C424.989 174.825 426.773 175.346 428.568 175.869C430.363 176.394 431.881 177.375 433.125 178.813C434.369 180.253 434.991 182.099 434.991 184.356C434.991 187.298 433.848 189.653 431.564 191.426C429.278 193.199 426.351 194.084 422.781 194.084C419.604 194.084 416.883 193.392 414.62 192.01C412.356 190.626 410.746 188.789 409.788 186.498L414.686 183.708C415.208 185.264 416.187 186.498 417.624 187.405C419.059 188.313 420.779 188.766 422.781 188.766C424.653 188.766 426.198 188.412 427.417 187.699C428.635 186.986 429.246 185.874 429.246 184.363C429.246 183.113 428.613 182.109 427.349 181.353C426.086 180.598 424.566 179.955 422.794 179.427C421.019 178.897 419.235 178.365 417.442 177.83C415.647 177.295 414.119 176.336 412.857 174.952C411.595 173.57 410.964 171.797 410.964 169.634C410.964 166.824 412.062 164.511 414.261 162.695C416.458 160.879 419.212 159.972 422.52 159.972C425.174 159.972 427.536 160.565 429.605 161.754C431.671 162.944 433.228 164.598 434.272 166.716L429.507 169.376C428.331 166.608 426.002 165.224 422.52 165.224C420.91 165.224 419.539 165.594 418.406 166.333C417.274 167.072 416.71 168.121 416.71 169.472Z" fill="white"/>
<path d="M570.274 166.261H561.59V183.838C561.59 185.437 561.906 186.573 562.536 187.244C563.167 187.915 564.136 188.259 565.442 188.28C566.748 188.302 568.357 188.271 570.274 188.182V193.242C565.312 193.889 561.677 193.49 559.371 192.043C557.062 190.593 555.91 187.858 555.91 183.838V166.261H549.446V160.814H555.91V153.42L561.59 151.733V160.814H570.274V166.261Z" fill="white"/>
<path d="M691.455 179.622C692.02 182.519 693.359 184.769 695.47 186.366C697.581 187.966 700.181 188.766 703.272 188.766C707.582 188.766 710.716 187.19 712.675 184.032L717.506 186.756C714.328 191.642 709.541 194.084 703.142 194.084C697.961 194.084 693.751 192.475 690.508 189.254C687.265 186.033 685.644 181.956 685.644 177.028C685.644 172.142 687.232 168.079 690.41 164.834C693.586 161.593 697.7 159.972 702.75 159.972C707.538 159.972 711.444 161.647 714.469 164.996C717.494 168.348 719.008 172.381 719.008 177.093C719.008 177.914 718.942 178.757 718.812 179.622H691.455ZM702.75 165.29C699.703 165.29 697.178 166.143 695.176 167.851C693.173 169.559 691.933 171.839 691.455 174.694H713.261C712.782 171.623 711.565 169.289 709.606 167.689C707.647 166.089 705.362 165.29 702.75 165.29Z" fill="white"/>
<path d="M872.897 159.972C876.554 159.972 879.513 161.149 881.777 163.504C884.04 165.862 885.172 169.05 885.172 173.07V193.242H879.491V173.265C879.491 170.76 878.838 168.813 877.532 167.429C876.226 166.045 874.486 165.353 872.31 165.353C869.872 165.353 867.923 166.165 866.466 167.785C865.007 169.406 864.278 171.883 864.278 175.212V193.242H858.599V173.265C858.599 170.76 857.978 168.813 856.738 167.429C855.497 166.045 853.81 165.353 851.677 165.353C849.283 165.353 847.292 166.176 845.704 167.818C844.114 169.463 843.32 171.926 843.32 175.212V193.242H837.641V160.814H843.32V165.158C845.54 161.701 848.782 159.972 853.048 159.972C857.444 159.972 860.644 161.808 862.647 165.484C864.909 161.808 868.327 159.972 872.897 159.972Z" fill="white"/>
<path d="M1010.07 169.472C1010.07 170.699 1010.71 171.682 1012 172.423C1013.28 173.162 1014.81 173.791 1016.58 174.309C1018.35 174.825 1020.14 175.346 1021.93 175.869C1023.73 176.394 1025.25 177.375 1026.49 178.813C1027.73 180.253 1028.36 182.099 1028.36 184.356C1028.36 187.298 1027.21 189.653 1024.93 191.426C1022.64 193.199 1019.71 194.084 1016.15 194.084C1012.97 194.084 1010.25 193.392 1007.98 192.01C1005.72 190.626 1004.11 188.789 1003.15 186.498L1008.05 183.708C1008.57 185.264 1009.55 186.498 1010.99 187.405C1012.42 188.313 1014.14 188.766 1016.15 188.766C1018.02 188.766 1019.56 188.412 1020.78 187.699C1022 186.986 1022.61 185.874 1022.61 184.363C1022.61 183.113 1021.98 182.109 1020.71 181.353C1019.45 180.598 1017.93 179.955 1016.16 179.427C1014.38 178.897 1012.6 178.365 1010.81 177.83C1009.01 177.295 1007.48 176.336 1006.22 174.952C1004.96 173.57 1004.33 171.797 1004.33 169.634C1004.33 166.824 1005.43 164.511 1007.63 162.695C1009.82 160.879 1012.58 159.972 1015.88 159.972C1018.54 159.972 1020.9 160.565 1022.97 161.754C1025.04 162.944 1026.59 164.598 1027.64 166.716L1022.87 169.376C1021.69 166.608 1019.37 165.224 1015.88 165.224C1014.27 165.224 1012.9 165.594 1011.77 166.333C1010.64 167.072 1010.07 168.121 1010.07 169.472Z" fill="white"/>
</g>
<defs>
<clipPath id="clip0_1411_104">
<rect width="1200" height="336.296" fill="white"/>
</clipPath>
</defs>
</svg>
